<?xml version="1.0" encoding="UTF-8"?>
<svg width="682px" height="343px" viewBox="0 0 682 343" version="1.1" xmlns="http://www.w3.org/2000/svg" xmlns:xlink="http://www.w3.org/1999/xlink">
    <!-- Generator: Sketch 55.2 (78181) - https://sketchapp.com -->
    <title>Group</title>
    <desc>Created with Sketch.</desc>
    <g id="Page-1" stroke="none" stroke-width="1" fill="none" fill-rule="evenodd">
        <g id="home-CONTENTME-Copy-40" transform="translate(-401.000000, -179.000000)" fill="#FFFFFF" fill-rule="nonzero">
            <g id="Group" transform="translate(401.273637, 179.220000)">
                <path d="M19.88,166.78 L19.88,164.68 L32.34,164.68 L32.34,76.34 L12.88,76.34 C6.3,76.34 4.48,79.14 3.36,89.36 L2.1,100.42 L-1.13686838e-13,100.42 C-1.13686838e-13,100.42 0.84,87.82 0.84,83.06 L0.84,74.24 L77.56,74.24 L77.56,83.06 C77.56,87.82 78.12,100.42 78.12,100.42 L76.02,100.42 L75.04,89.36 C74.2,79.14 72.1,76.34 65.52,76.34 L46.06,76.34 L46.06,164.68 L58.52,164.68 L58.52,166.78 L19.88,166.78 Z M85.3236363,166.78 L85.3236363,164.68 L95.1236363,164.68 L95.1236363,105.88 L85.3236363,105.88 L85.3236363,103.78 L107.163636,103.78 L107.163636,118.62 L107.443636,118.62 C109.963636,111.34 115.563636,102.8 125.503636,102.8 C132.923636,102.8 138.803636,107.7 138.803636,115.54 C138.803636,122.4 134.463636,126.6 128.863636,126.6 C127.323636,126.6 125.923636,126.6 124.103636,125.76 L124.103636,124.64 C128.163636,125.34 128.863636,120.3 128.863636,116.38 C128.863636,109.38 126.623636,105.74 122.423636,105.74 C118.503636,105.74 114.863636,109.1 112.203636,113.44 C109.123636,118.48 107.443636,124.64 107.443636,128.98 L107.443636,164.68 L118.643636,164.68 L118.643636,166.78 L85.3236363,166.78 Z M189.687273,156.28 L189.407273,156.28 C186.607273,161.74 180.167273,167.76 169.807273,167.76 C160.847273,167.76 150.907273,163.7 150.907273,152.08 C150.907273,136.96 170.087273,132.06 187.027273,132.06 L188.427273,132.06 L188.427273,117.36 C188.427273,109.1 186.187273,104.62 176.947273,104.62 C168.407273,104.62 163.787273,107.84 163.787273,115.26 C163.787273,119.88 165.747273,123.8 170.367273,122.82 L170.367273,123.94 C170.367273,123.94 167.847273,124.78 164.907273,124.78 C158.607273,124.78 154.267273,121.28 154.267273,115.68 C154.267273,107.98 162.247273,102.8 176.947273,102.8 C193.887273,102.8 200.747273,109.8 200.747273,121.98 L200.747273,158.52 C200.747273,162.58 201.587273,164.82 204.527273,164.82 C209.287273,164.82 211.107273,160.2 211.107273,155.16 L213.207273,155.16 C213.207273,163.56 208.587273,167.76 202.007273,167.76 C194.447273,167.76 190.107273,163.42 189.687273,156.28 Z M188.427273,152.08 L188.427273,134.16 L185.907273,134.16 C179.887273,134.16 174.987273,135.14 171.347273,137.24 C166.727273,139.9 164.207273,144.66 164.207273,152.36 C164.207273,161.6 167.147273,165.38 172.327273,165.38 C175.407273,165.38 178.627273,164.12 181.427273,162.16 C185.347273,159.36 188.427273,155.3 188.427273,152.08 Z M222.790909,166.78 L222.790909,164.68 L232.590909,164.68 L232.590909,105.88 L222.790909,105.88 L222.790909,103.78 L244.630909,103.78 L244.630909,118.76 L244.910909,118.76 C244.910909,118.76 249.110909,102.8 267.450909,102.8 C281.310909,102.8 287.610909,108.68 287.610909,121.98 L287.610909,164.68 L297.410909,164.68 L297.410909,166.78 L266.470909,166.78 L266.470909,164.68 L275.290909,164.68 L275.290909,119.46 C275.290909,108.96 272.910909,105.32 265.350909,105.32 C258.490909,105.32 253.170909,108.82 249.950909,113.44 C246.310909,118.62 244.910909,125.2 244.910909,129.12 L244.910909,164.68 L253.730909,164.68 L253.730909,166.78 L222.790909,166.78 Z M313.434545,167.76 L311.614545,167.76 C312.874545,164.26 313.154545,159.22 313.154545,154.74 L313.154545,144.38 L315.254545,144.38 L315.254545,149.42 C315.254545,156.7 323.374545,165.66 336.394545,165.66 C345.214545,165.66 352.634545,161.6 352.634545,153.76 C352.634545,137.52 312.594545,147.74 312.594545,121.56 C312.594545,107.14 325.194545,102.8 334.714545,102.8 C341.294545,102.8 346.894545,105.04 350.534545,108.82 C353.754545,108.12 354.874545,104.9 355.854545,102.8 L357.674545,102.8 C355.854545,106.3 355.434545,111.34 355.434545,115.82 L355.434545,122.96 L353.334545,122.96 L353.334545,120.72 C353.334545,113.58 347.734545,104.9 334.574545,104.9 C325.614545,104.9 318.054545,108.54 318.054545,116.52 C318.054545,132.76 358.374545,122.82 358.374545,148.02 C358.374545,159.22 349.974545,167.76 336.254545,167.76 C328.554545,167.76 322.254545,164.82 318.334545,160.9 C315.954545,161.6 314.274545,165.24 313.434545,167.76 Z M374.258182,166.78 L374.258182,164.68 L384.058182,164.68 L384.058182,105.88 L374.258182,105.88 L374.258182,103.78 L384.058182,103.78 L384.058182,91.18 C384.058182,75.36 393.158182,64.44 409.538182,64.44 C419.898182,64.44 428.298182,69.48 428.298182,76.62 C428.298182,81.52 424.658182,85.72 417.798182,85.72 C416.258182,85.72 414.298182,85.44 412.198182,84.88 L412.198182,83.76 C417.658182,84.88 419.338182,79.14 419.338182,75.78 C419.338182,70.6 415.698182,66.26 409.538182,66.26 C400.018182,66.26 396.378182,72.42 396.378182,85.72 L396.378182,103.78 L412.618182,103.78 L412.618182,105.88 L396.378182,105.88 L396.378182,164.68 L407.578182,164.68 L407.578182,166.78 L374.258182,166.78 Z M454.401818,167.76 C434.241818,167.76 424.441818,155.16 424.441818,135.7 C424.441818,115.54 433.681818,102.8 454.401818,102.8 C475.261818,102.8 484.221818,114.98 484.221818,134.86 C484.221818,155.86 472.881818,167.76 454.401818,167.76 Z M454.401818,165.94 C467.141818,165.94 471.061818,156.28 471.061818,134.86 C471.061818,113.58 467.141818,104.62 454.401818,104.62 C441.801818,104.62 437.601818,113.86 437.601818,135.7 C437.601818,156.56 441.661818,165.94 454.401818,165.94 Z M499.685454,166.78 L499.685454,164.68 L509.485454,164.68 L509.485454,105.88 L499.685454,105.88 L499.685454,103.78 L521.525454,103.78 L521.525454,118.62 L521.805454,118.62 C524.325454,111.34 529.925454,102.8 539.865454,102.8 C547.285454,102.8 553.165454,107.7 553.165454,115.54 C553.165454,122.4 548.825454,126.6 543.225454,126.6 C541.685454,126.6 540.285454,126.6 538.465454,125.76 L538.465454,124.64 C542.525454,125.34 543.225454,120.3 543.225454,116.38 C543.225454,109.38 540.985454,105.74 536.785454,105.74 C532.865454,105.74 529.225454,109.1 526.565454,113.44 C523.485454,118.48 521.805454,124.64 521.805454,128.98 L521.805454,164.68 L533.005454,164.68 L533.005454,166.78 L499.685454,166.78 Z M564.14909,166.78 L564.14909,164.68 L573.94909,164.68 L573.94909,105.88 L564.14909,105.88 L564.14909,103.78 L585.98909,103.78 L585.98909,118.48 L586.26909,118.48 C586.26909,118.48 590.46909,102.8 608.80909,102.8 C621.40909,102.8 627.70909,107.7 628.68909,118.48 L628.96909,118.48 C628.96909,118.48 633.16909,102.8 651.50909,102.8 C665.36909,102.8 671.66909,108.68 671.66909,121.98 L671.66909,164.68 L681.46909,164.68 L681.46909,166.78 L650.52909,166.78 L650.52909,164.68 L659.34909,164.68 L659.34909,119.46 C659.34909,108.96 656.96909,105.32 649.40909,105.32 C634.28909,105.32 629.24909,121 628.96909,128.56 L628.96909,164.68 L637.78909,164.68 L637.78909,166.78 L607.82909,166.78 L607.82909,164.68 L616.64909,164.68 L616.64909,119.46 C616.64909,108.96 614.26909,105.32 606.70909,105.32 C591.30909,105.32 586.26909,121.84 586.26909,129.12 L586.26909,164.68 L595.08909,164.68 L595.08909,166.78 L564.14909,166.78 Z" id="Transform"></path>
                <path d="M148.690909,14.56 C146.584232,14.56 144.844249,13.860007 143.470909,12.46 C142.097569,11.059993 141.410909,9.3333436 141.410909,7.28 C141.410909,5.213323 142.097569,3.4833403 143.470909,2.09 C144.844249,0.6966597 146.584232,-1.16529009e-12 148.690909,-1.16529009e-12 C149.957582,-1.16529009e-12 151.12757,0.2966637 152.200909,0.89 C153.274248,1.4833363 154.110906,2.2866616 154.710909,3.3 L152.330909,4.68 C151.984241,4.0533302 151.490912,3.5633351 150.850909,3.21 C150.210906,2.8566649 149.490913,2.68 148.690909,2.68 C147.330902,2.68 146.234246,3.1066624 145.400909,3.96 C144.567571,4.8133376 144.150909,5.9199932 144.150909,7.28 C144.150909,8.6266734 144.567571,9.7266624 145.400909,10.58 C146.234246,11.4333376 147.330902,11.86 148.690909,11.86 C149.490913,11.86 150.214239,11.6833351 150.860909,11.33 C151.507579,10.9766649 151.997574,10.4933364 152.330909,9.88 L154.710909,11.26 C154.110906,12.2733384 153.277581,13.0766637 152.210909,13.67 C151.144237,14.2633363 149.970915,14.56 148.690909,14.56 Z M165.28,0.28 L168.02,0.28 L168.02,14.28 L165.28,14.28 L165.28,8.48 L160.08,8.48 L160.08,14.28 L157.32,14.28 L157.32,0.28 L160.08,0.28 L160.08,5.84 L165.28,5.84 L165.28,0.28 Z M183.309091,12.46 C181.89575,13.860007 180.175768,14.56 178.149091,14.56 C176.122414,14.56 174.405764,13.8566737 172.999091,12.45 C171.592417,11.0433263 170.889091,9.3200102 170.889091,7.28 C170.889091,5.2399898 171.592417,3.5166737 172.999091,2.11 C174.405764,0.7033263 176.122414,-1.16529009e-12 178.149091,-1.16529009e-12 C180.175768,-1.16529009e-12 181.89575,0.7033263 183.309091,2.11 C184.722431,3.5166737 185.429091,5.2399898 185.429091,7.28 C185.429091,9.3200102 184.722431,11.0466596 183.309091,12.46 Z M174.929091,10.58 C175.795762,11.4333376 176.869084,11.86 178.149091,11.86 C179.429097,11.86 180.50242,11.4300043 181.369091,10.57 C182.235762,9.7099957 182.669091,8.61334 182.669091,7.28 C182.669091,5.94666 182.235762,4.846671 181.369091,3.98 C180.50242,3.113329 179.429097,2.68 178.149091,2.68 C176.869084,2.68 175.795762,3.113329 174.929091,3.98 C174.06242,4.846671 173.629091,5.94666 173.629091,7.28 C173.629091,8.61334 174.06242,9.713329 174.929091,10.58 Z M192.558182,14.56 C191.171508,14.56 190.004853,14.2500031 189.058182,13.63 C188.11151,13.0099969 187.44485,12.166672 187.058182,11.1 L189.418182,9.72 C189.964851,11.1466738 191.038174,11.86 192.638182,11.86 C193.411519,11.86 193.97818,11.7200014 194.338182,11.44 C194.698183,11.1599986 194.878182,10.8066688 194.878182,10.38 C194.878182,9.8866642 194.658184,9.5033347 194.218182,9.23 C193.778179,8.9566653 192.991521,8.6600016 191.858182,8.34 C191.231512,8.1533324 190.701517,7.9666676 190.268182,7.78 C189.834846,7.5933324 189.401517,7.3433349 188.968182,7.03 C188.534846,6.7166651 188.204849,6.3200024 187.978182,5.84 C187.751514,5.3599976 187.638182,4.8000032 187.638182,4.16 C187.638182,2.893327 188.088177,1.8833371 188.988182,1.13 C189.888186,0.3766629 190.971509,-1.16529009e-12 192.238182,-1.16529009e-12 C193.371521,-1.16529009e-12 194.368177,0.2766639 195.228182,0.83 C196.088186,1.3833361 196.758179,2.1533284 197.238182,3.14 L194.918182,4.48 C194.358179,3.279994 193.464854,2.68 192.238182,2.68 C191.664845,2.68 191.21485,2.8099987 190.888182,3.07 C190.561513,3.3300013 190.398182,3.6666646 190.398182,4.08 C190.398182,4.5200022 190.581513,4.8766653 190.948182,5.15 C191.31485,5.4233347 192.018176,5.7199984 193.058182,6.04 C193.48485,6.173334 193.808181,6.2766663 194.028182,6.35 C194.248183,6.4233337 194.54818,6.5366659 194.928182,6.69 C195.308184,6.8433341 195.601514,6.986666 195.808182,7.12 C196.014849,7.253334 196.251514,7.4333322 196.518182,7.66 C196.78485,7.8866678 196.988181,8.1199988 197.128182,8.36 C197.268182,8.6000012 197.388181,8.8899983 197.488182,9.23 C197.588182,9.5700017 197.638182,9.939998 197.638182,10.34 C197.638182,11.6333398 197.168186,12.6599962 196.228182,13.42 C195.288177,14.1800038 194.064856,14.56 192.558182,14.56 Z M203.007273,11.64 L208.907273,11.64 L208.907273,14.28 L200.247273,14.28 L200.247273,0.28 L208.807273,0.28 L208.807273,2.92 L203.007273,2.92 L203.007273,5.9 L208.307273,5.9 L208.307273,8.5 L203.007273,8.5 L203.007273,11.64 Z M226.665454,14.28 L225.825454,11.76 L220.245454,11.76 L219.405454,14.28 L216.425454,14.28 L221.325454,0.28 L224.745454,0.28 L229.665454,14.28 L226.665454,14.28 Z M221.125454,9.18 L224.965454,9.18 L223.045454,3.46 L221.125454,9.18 Z M251.543636,0.28 L251.543636,14.28 L248.803636,14.28 L248.803636,5.2 L244.863636,11.7 L244.543636,11.7 L240.603636,5.22 L240.603636,14.28 L237.843636,14.28 L237.843636,0.28 L240.683636,0.28 L244.703636,6.9 L248.703636,0.28 L251.543636,0.28 Z M260.272727,14.56 C258.712719,14.56 257.432727,14.1200044 256.432727,13.24 C255.432727,12.3599956 254.932727,11.1800074 254.932727,9.7 L254.932727,0.28 L257.672727,0.28 L257.672727,9.48 C257.672727,10.213337 257.882725,10.7933312 258.302727,11.22 C258.722729,11.6466688 259.379389,11.86 260.272727,11.86 C261.166065,11.86 261.822725,11.6466688 262.242727,11.22 C262.662729,10.7933312 262.872727,10.213337 262.872727,9.48 L262.872727,0.28 L265.632727,0.28 L265.632727,9.7 C265.632727,11.1800074 265.132732,12.3599956 264.132727,13.24 C263.132722,14.1200044 261.846068,14.56 260.272727,14.56 Z M273.801818,14.56 C272.415144,14.56 271.248489,14.2500031 270.301818,13.63 C269.355147,13.0099969 268.688487,12.166672 268.301818,11.1 L270.661818,9.72 C271.208487,11.1466738 272.28181,11.86 273.881818,11.86 C274.655155,11.86 275.221816,11.7200014 275.581818,11.44 C275.94182,11.1599986 276.121818,10.8066688 276.121818,10.38 C276.121818,9.8866642 275.90182,9.5033347 275.461818,9.23 C275.021816,8.9566653 274.235157,8.6600016 273.101818,8.34 C272.475148,8.1533324 271.945153,7.9666676 271.511818,7.78 C271.078482,7.5933324 270.645153,7.3433349 270.211818,7.03 C269.778482,6.7166651 269.448486,6.3200024 269.221818,5.84 C268.99515,5.3599976 268.881818,4.8000032 268.881818,4.16 C268.881818,2.893327 269.331813,1.8833371 270.231818,1.13 C271.131822,0.3766629 272.215145,-1.16529009e-12 273.481818,-1.16529009e-12 C274.615157,-1.16529009e-12 275.611814,0.2766639 276.471818,0.83 C277.331822,1.3833361 278.001816,2.1533284 278.481818,3.14 L276.161818,4.48 C275.601815,3.279994 274.708491,2.68 273.481818,2.68 C272.908482,2.68 272.458486,2.8099987 272.131818,3.07 C271.80515,3.3300013 271.641818,3.6666646 271.641818,4.08 C271.641818,4.5200022 271.825149,4.8766653 272.191818,5.15 C272.558486,5.4233347 273.261813,5.7199984 274.301818,6.04 C274.728487,6.173334 275.051817,6.2766663 275.271818,6.35 C275.491819,6.4233337 275.791816,6.5366659 276.171818,6.69 C276.55182,6.8433341 276.84515,6.986666 277.051818,7.12 C277.258486,7.253334 277.49515,7.4333322 277.761818,7.66 C278.028486,7.8866678 278.231817,8.1199988 278.371818,8.36 C278.511819,8.6000012 278.631817,8.8899983 278.731818,9.23 C278.831818,9.5700017 278.881818,9.939998 278.881818,10.34 C278.881818,11.6333398 278.411823,12.6599962 277.471818,13.42 C276.531813,14.1800038 275.308492,14.56 273.801818,14.56 Z M281.490909,0.28 L284.250909,0.28 L284.250909,14.28 L281.490909,14.28 L281.490909,0.28 Z M294.4,14.56 C292.293323,14.56 290.55334,13.860007 289.18,12.46 C287.80666,11.059993 287.12,9.3333436 287.12,7.28 C287.12,5.213323 287.80666,3.4833403 289.18,2.09 C290.55334,0.6966597 292.293323,-1.16529009e-12 294.4,-1.16529009e-12 C295.666673,-1.16529009e-12 296.836661,0.2966637 297.91,0.89 C298.983338,1.4833363 299.819997,2.2866616 300.42,3.3 L298.04,4.68 C297.693331,4.0533302 297.200003,3.5633351 296.56,3.21 C295.919997,2.8566649 295.200004,2.68 294.4,2.68 C293.039993,2.68 291.943337,3.1066624 291.11,3.96 C290.276662,4.8133376 289.86,5.9199932 289.86,7.28 C289.86,8.6266734 290.276662,9.7266624 291.11,10.58 C291.943337,11.4333376 293.039993,11.86 294.4,11.86 C295.200004,11.86 295.92333,11.6833351 296.57,11.33 C297.21667,10.9766649 297.706665,10.4933364 298.04,9.88 L300.42,11.26 C299.819997,12.2733384 298.986672,13.0766637 297.92,13.67 C296.853328,14.2633363 295.680006,14.56 294.4,14.56 Z M311.969091,14.28 L311.129091,11.76 L305.549091,11.76 L304.709091,14.28 L301.729091,14.28 L306.629091,0.28 L310.049091,0.28 L314.969091,14.28 L311.969091,14.28 Z M306.429091,9.18 L310.269091,9.18 L308.349091,3.46 L306.429091,9.18 Z M319.998182,11.64 L325.338182,11.64 L325.338182,14.28 L317.238182,14.28 L317.238182,0.28 L319.998182,0.28 L319.998182,11.64 Z M342.716363,14.28 L341.876363,11.76 L336.296363,11.76 L335.456363,14.28 L332.476363,14.28 L337.376363,0.28 L340.796363,0.28 L345.716363,14.28 L342.716363,14.28 Z M337.176363,9.18 L341.016363,9.18 L339.096363,3.46 L337.176363,9.18 Z M356.225454,0.28 L356.225454,2.92 L352.445454,2.92 L352.445454,14.28 L349.685454,14.28 L349.685454,2.92 L345.925454,2.92 L345.925454,0.28 L356.225454,0.28 Z M366.634545,0.28 L369.374545,0.28 L369.374545,14.28 L366.634545,14.28 L366.634545,8.48 L361.434545,8.48 L361.434545,14.28 L358.674545,14.28 L358.674545,0.28 L361.434545,0.28 L361.434545,5.84 L366.634545,5.84 L366.634545,0.28 Z M386.583636,0.28 L386.583636,14.28 L383.843636,14.28 L383.843636,5.2 L379.903636,11.7 L379.583636,11.7 L375.643636,5.22 L375.643636,14.28 L372.883636,14.28 L372.883636,0.28 L375.723636,0.28 L379.743636,6.9 L383.743636,0.28 L386.583636,0.28 Z M401.872727,12.46 C400.459387,13.860007 398.739404,14.56 396.712727,14.56 C394.68605,14.56 392.969401,13.8566737 391.562727,12.45 C390.156053,11.0433263 389.452727,9.3200102 389.452727,7.28 C389.452727,5.2399898 390.156053,3.5166737 391.562727,2.11 C392.969401,0.7033263 394.68605,-1.16529009e-12 396.712727,-1.16529009e-12 C398.739404,-1.16529009e-12 400.459387,0.7033263 401.872727,2.11 C403.286067,3.5166737 403.992727,5.2399898 403.992727,7.28 C403.992727,9.3200102 403.286067,11.0466596 401.872727,12.46 Z M393.492727,10.58 C394.359398,11.4333376 395.432721,11.86 396.712727,11.86 C397.992733,11.86 399.066056,11.4300043 399.932727,10.57 C400.799398,9.7099957 401.232727,8.61334 401.232727,7.28 C401.232727,5.94666 400.799398,4.846671 399.932727,3.98 C399.066056,3.113329 397.992733,2.68 396.712727,2.68 C395.432721,2.68 394.359398,3.113329 393.492727,3.98 C392.626056,4.846671 392.192727,5.94666 392.192727,7.28 C392.192727,8.61334 392.626056,9.713329 393.492727,10.58 Z M411.121818,14.56 C409.735144,14.56 408.568489,14.2500031 407.621818,13.63 C406.675146,13.0099969 406.008486,12.166672 405.621818,11.1 L407.981818,9.72 C408.528487,11.1466738 409.60181,11.86 411.201818,11.86 C411.975155,11.86 412.541816,11.7200014 412.901818,11.44 C413.26182,11.1599986 413.441818,10.8066688 413.441818,10.38 C413.441818,9.8866642 413.22182,9.5033347 412.781818,9.23 C412.341816,8.9566653 411.555157,8.6600016 410.421818,8.34 C409.795148,8.1533324 409.265153,7.9666676 408.831818,7.78 C408.398482,7.5933324 407.965153,7.3433349 407.531818,7.03 C407.098482,6.7166651 406.768486,6.3200024 406.541818,5.84 C406.31515,5.3599976 406.201818,4.8000032 406.201818,4.16 C406.201818,2.893327 406.651813,1.8833371 407.551818,1.13 C408.451822,0.3766629 409.535145,-1.16529009e-12 410.801818,-1.16529009e-12 C411.935157,-1.16529009e-12 412.931814,0.2766639 413.791818,0.83 C414.651822,1.3833361 415.321815,2.1533284 415.801818,3.14 L413.481818,4.48 C412.921815,3.279994 412.028491,2.68 410.801818,2.68 C410.228482,2.68 409.778486,2.8099987 409.451818,3.07 C409.12515,3.3300013 408.961818,3.6666646 408.961818,4.08 C408.961818,4.5200022 409.145149,4.8766653 409.511818,5.15 C409.878486,5.4233347 410.581813,5.7199984 411.621818,6.04 C412.048487,6.173334 412.371817,6.2766663 412.591818,6.35 C412.811819,6.4233337 413.111816,6.5366659 413.491818,6.69 C413.87182,6.8433341 414.16515,6.986666 414.371818,7.12 C414.578486,7.253334 414.81515,7.4333322 415.081818,7.66 C415.348486,7.8866678 415.551817,8.1199988 415.691818,8.36 C415.831819,8.6000012 415.951817,8.8899983 416.051818,9.23 C416.151818,9.5700017 416.201818,9.939998 416.201818,10.34 C416.201818,11.6333398 415.731823,12.6599962 414.791818,13.42 C413.851813,14.1800038 412.628492,14.56 411.121818,14.56 Z M424.030909,0.28 C425.377582,0.28 426.510904,0.7333288 427.430909,1.64 C428.350913,2.5466712 428.810909,3.6599934 428.810909,4.98 C428.810909,6.3000066 428.350913,7.4133288 427.430909,8.32 C426.510904,9.2266712 425.377582,9.68 424.030909,9.68 L421.570909,9.68 L421.570909,14.28 L418.810909,14.28 L418.810909,0.28 L424.030909,0.28 Z M424.030909,7.1 C424.617578,7.1 425.10424,6.8966687 425.490909,6.49 C425.877577,6.0833313 426.070909,5.580003 426.070909,4.98 C426.070909,4.3666636 425.877577,3.86 425.490909,3.46 C425.10424,3.059998 424.617578,2.86 424.030909,2.86 L421.570909,2.86 L421.570909,7.1 L424.030909,7.1 Z M439.48,0.28 L442.22,0.28 L442.22,14.28 L439.48,14.28 L439.48,8.48 L434.28,8.48 L434.28,14.28 L431.52,14.28 L431.52,0.28 L434.28,0.28 L434.28,5.84 L439.48,5.84 L439.48,0.28 Z M448.489091,11.64 L454.389091,11.64 L454.389091,14.28 L445.729091,14.28 L445.729091,0.28 L454.289091,0.28 L454.289091,2.92 L448.489091,2.92 L448.489091,5.9 L453.789091,5.9 L453.789091,8.5 L448.489091,8.5 L448.489091,11.64 Z M464.918181,14.28 L462.098181,9.42 L459.998181,9.42 L459.998181,14.28 L457.238181,14.28 L457.238181,0.28 L462.838181,0.28 C464.131521,0.28 465.23151,0.7333288 466.138181,1.64 C467.044853,2.5466712 467.498181,3.6399936 467.498181,4.92 C467.498181,5.786671 467.251517,6.5899963 466.758181,7.33 C466.264846,8.0700037 465.611519,8.6266648 464.798181,9 L467.898181,14.28 L464.918181,14.28 Z M459.998181,2.86 L459.998181,7 L462.838181,7 C463.358184,7 463.804846,6.7966687 464.178181,6.39 C464.551517,5.9833313 464.738181,5.4933362 464.738181,4.92 C464.738181,4.3466638 464.551517,3.86 464.178181,3.46 C463.804846,3.059998 463.358184,2.86 462.838181,2.86 L459.998181,2.86 Z M473.187272,11.64 L479.087272,11.64 L479.087272,14.28 L470.427272,14.28 L470.427272,0.28 L478.987272,0.28 L478.987272,2.92 L473.187272,2.92 L473.187272,5.9 L478.487272,5.9 L478.487272,8.5 L473.187272,8.5 L473.187272,11.64 Z M496.845454,14.28 L496.005454,11.76 L490.425454,11.76 L489.585454,14.28 L486.605454,14.28 L491.505454,0.28 L494.925454,0.28 L499.845454,14.28 L496.845454,14.28 Z M491.305454,9.18 L495.145454,9.18 L493.225454,3.46 L491.305454,9.18 Z M510.214545,0.28 L512.974545,0.28 L512.974545,14.28 L510.874545,14.28 L504.874545,5.72 L504.874545,14.28 L502.114545,14.28 L502.114545,0.28 L504.214545,0.28 L510.214545,8.82 L510.214545,0.28 Z M522.043636,0.28 C523.963646,0.28 525.566963,0.9533266 526.853636,2.3 C528.140309,3.6466734 528.783636,5.3066568 528.783636,7.28 C528.783636,9.2533432 528.140309,10.9133266 526.853636,12.26 C525.566963,13.6066734 523.963646,14.28 522.043636,14.28 L516.483636,14.28 L516.483636,0.28 L522.043636,0.28 Z M522.043636,11.64 C523.256975,11.64 524.243636,11.2366707 525.003636,10.43 C525.76364,9.6233293 526.143636,8.5733398 526.143636,7.28 C526.143636,5.9866602 525.76364,4.9366707 525.003636,4.13 C524.243636,3.3233293 523.256975,2.92 522.043636,2.92 L519.243636,2.92 L519.243636,11.64 L522.043636,11.64 Z M533.212727,14.04 C532.879392,14.373335 532.479396,14.54 532.012727,14.54 C531.546058,14.54 531.146062,14.373335 530.812727,14.04 C530.479392,13.706665 530.312727,13.306669 530.312727,12.84 C530.312727,12.373331 530.479392,11.973335 530.812727,11.64 C531.146062,11.306665 531.546058,11.14 532.012727,11.14 C532.479396,11.14 532.879392,11.306665 533.212727,11.64 C533.546062,11.973335 533.712727,12.373331 533.712727,12.84 C533.712727,13.306669 533.546062,13.706665 533.212727,14.04 Z M537.772727,14.04 C537.439392,14.373335 537.039396,14.54 536.572727,14.54 C536.106058,14.54 535.706062,14.373335 535.372727,14.04 C535.039392,13.706665 534.872727,13.306669 534.872727,12.84 C534.872727,12.373331 535.039392,11.973335 535.372727,11.64 C535.706062,11.306665 536.106058,11.14 536.572727,11.14 C537.039396,11.14 537.439392,11.306665 537.772727,11.64 C538.106062,11.973335 538.272727,12.373331 538.272727,12.84 C538.272727,13.306669 538.106062,13.706665 537.772727,14.04 Z M542.312727,14.04 C541.979392,14.373335 541.579396,14.54 541.112727,14.54 C540.646058,14.54 540.246062,14.373335 539.912727,14.04 C539.579392,13.706665 539.412727,13.306669 539.412727,12.84 C539.412727,12.373331 539.579392,11.973335 539.912727,11.64 C540.246062,11.306665 540.646058,11.14 541.112727,11.14 C541.579396,11.14 541.979392,11.306665 542.312727,11.64 C542.646062,11.973335 542.812727,12.373331 542.812727,12.84 C542.812727,13.306669 542.646062,13.706665 542.312727,14.04 Z" id="CHOSEAMUSICALATHMOSPHEREAND…"></path>
                <path d="M77.5318182,323.08 L77.5318182,324.2 C74.7318182,324.62 73.1918182,327.42 73.1918182,331.9 C73.1918182,336.66 74.7318182,340.58 80.7518182,340.58 C84.8118182,340.58 88.4518182,338.9 91.1118182,335.26 C93.2118182,332.32 94.8918182,327.14 95.5918182,322.38 L97.1318182,311.04 L68.9918182,248.88 L61.5718182,248.88 L61.5718182,246.78 L92.2318182,246.78 L92.2318182,248.88 L82.5718182,248.88 L102.731818,293.68 L116.031818,257.28 C118.131818,251.68 116.451818,248.88 110.291818,248.88 L107.491818,248.88 L107.491818,246.78 L129.751818,246.78 L129.751818,248.88 L127.651818,248.88 C124.011818,248.88 120.371818,251.4 118.971818,255.32 L99.9318182,307.4 L97.8318182,321.54 C96.2918182,331.9 92.9318182,342.68 80.3318182,342.68 C73.1918182,342.68 64.3718182,339.88 64.3718182,332.18 C64.3718182,327.14 68.0118182,323.08 77.5318182,323.08 Z M169.015454,310.76 C148.855454,310.76 139.055454,298.16 139.055454,278.7 C139.055454,258.54 148.295454,245.8 169.015454,245.8 C189.875454,245.8 198.835454,257.98 198.835454,277.86 C198.835454,298.86 187.495454,310.76 169.015454,310.76 Z M169.015454,308.94 C181.755454,308.94 185.675454,299.28 185.675454,277.86 C185.675454,256.58 181.755454,247.62 169.015454,247.62 C156.415454,247.62 152.215454,256.86 152.215454,278.7 C152.215454,299.56 156.275454,308.94 169.015454,308.94 Z M222.279091,291.58 L222.279091,248.88 L212.479091,248.88 L212.479091,246.78 L234.599091,246.78 L234.599091,294.1 C234.599091,304.6 236.979091,308.24 244.539091,308.24 C260.079091,308.24 264.979091,291.86 264.979091,284.58 L264.979091,248.88 L255.179091,248.88 L255.179091,246.78 L277.299091,246.78 L277.299091,307.68 L287.099091,307.68 L287.099091,309.78 L265.259091,309.78 L265.259091,294.8 L264.979091,294.8 C262.179091,302.36 256.019091,310.76 242.439091,310.76 C228.579091,310.76 222.279091,304.88 222.279091,291.58 Z M298.922727,309.78 L298.922727,307.68 L308.722727,307.68 L308.722727,248.88 L298.922727,248.88 L298.922727,246.78 L320.762727,246.78 L320.762727,261.62 L321.042727,261.62 C323.562727,254.34 329.162727,245.8 339.102727,245.8 C346.522727,245.8 352.402727,250.7 352.402727,258.54 C352.402727,265.4 348.062727,269.6 342.462727,269.6 C340.922727,269.6 339.522727,269.6 337.702727,268.76 L337.702727,267.64 C341.762727,268.34 342.462727,263.3 342.462727,259.38 C342.462727,252.38 340.222727,248.74 336.022727,248.74 C332.102727,248.74 328.462727,252.1 325.802727,256.44 C322.722727,261.48 321.042727,267.64 321.042727,271.98 L321.042727,307.68 L332.242727,307.68 L332.242727,309.78 L298.922727,309.78 Z M448.99,309.78 L448.99,296.34 L448.71,296.34 C445.77,304.74 439.47,310.76 428.13,310.76 C410.91,310.76 402.37,298.72 402.37,279.26 C402.37,258.12 413.43,245.8 430.23,245.8 C440.31,245.8 445.91,251.26 448.43,257.14 L448.71,257.14 L448.71,211.36 L438.91,211.36 L438.91,209.26 L461.03,209.26 L461.03,307.68 L470.83,307.68 L470.83,309.78 L448.99,309.78 Z M448.71,285.28 L448.71,269.04 C448.71,258.82 443.53,248.18 431.49,248.18 C420.15,248.18 415.53,257.7 415.53,279.54 C415.53,300.82 420.29,308.38 430.37,308.38 C441.71,308.38 448.71,297.18 448.71,285.28 Z M523.113636,299.28 L522.833636,299.28 C520.033636,304.74 513.593636,310.76 503.233636,310.76 C494.273636,310.76 484.333636,306.7 484.333636,295.08 C484.333636,279.96 503.513636,275.06 520.453636,275.06 L521.853636,275.06 L521.853636,260.36 C521.853636,252.1 519.613636,247.62 510.373636,247.62 C501.833636,247.62 497.213636,250.84 497.213636,258.26 C497.213636,262.88 499.173636,266.8 503.793636,265.82 L503.793636,266.94 C503.793636,266.94 501.273636,267.78 498.333636,267.78 C492.033636,267.78 487.693636,264.28 487.693636,258.68 C487.693636,250.98 495.673636,245.8 510.373636,245.8 C527.313636,245.8 534.173636,252.8 534.173636,264.98 L534.173636,301.52 C534.173636,305.58 535.013636,307.82 537.953636,307.82 C542.713636,307.82 544.533636,303.2 544.533636,298.16 L546.633636,298.16 C546.633636,306.56 542.013636,310.76 535.433636,310.76 C527.873636,310.76 523.533636,306.42 523.113636,299.28 Z M521.853636,295.08 L521.853636,277.16 L519.333636,277.16 C513.313636,277.16 508.413636,278.14 504.773636,280.24 C500.153636,282.9 497.633636,287.66 497.633636,295.36 C497.633636,304.6 500.573636,308.38 505.753636,308.38 C508.833636,308.38 512.053636,307.12 514.853636,305.16 C518.773636,302.36 521.853636,298.3 521.853636,295.08 Z M566.157272,323.08 L566.157272,324.2 C563.357272,324.62 561.817272,327.42 561.817272,331.9 C561.817272,336.66 563.357272,340.58 569.377272,340.58 C573.437272,340.58 577.077272,338.9 579.737272,335.26 C581.837272,332.32 583.517272,327.14 584.217272,322.38 L585.757272,311.04 L557.617272,248.88 L550.197272,248.88 L550.197272,246.78 L580.857272,246.78 L580.857272,248.88 L571.197272,248.88 L591.357272,293.68 L604.657272,257.28 C606.757272,251.68 605.077272,248.88 598.917272,248.88 L596.117272,248.88 L596.117272,246.78 L618.377272,246.78 L618.377272,248.88 L616.277272,248.88 C612.637272,248.88 608.997272,251.4 607.597272,255.32 L588.557272,307.4 L586.457272,321.54 C584.917272,331.9 581.557272,342.68 568.957272,342.68 C561.817272,342.68 552.997272,339.88 552.997272,332.18 C552.997272,327.14 556.637272,323.08 566.157272,323.08 Z" id="yourday"></path>
            </g>
        </g>
    </g>
</svg>